<?xml version="1.0" encoding="UTF-8" standalone="no"?>
<!DOCTYPE svg PUBLIC "-//W3C//DTD SVG 1.0//EN" "http://www.w3.org/TR/2001/PR-SVG-20010719/DTD/svg10.dtd">
<svg width="46cm" height="58cm" viewBox="6 16 911 1156" xmlns="http://www.w3.org/2000/svg" xmlns:xlink="http://www.w3.org/1999/xlink">
  <g>
    <rect style="fill: #add8e6" x="400" y="516" width="52" height="108"/>
    <rect style="fill: none; fill-opacity:0; stroke-width: 0.4; stroke: #bfbfbf" x="400" y="516" width="52" height="108"/>
  </g>
  <g>
    <rect style="fill: #add8e6" x="464" y="516" width="60" height="108"/>
    <rect style="fill: none; fill-opacity:0; stroke-width: 0.4; stroke: #bfbfbf" x="464" y="516" width="60" height="108"/>
  </g>
  <g>
    <rect style="fill: #b0f4a9" x="6" y="118" width="74" height="28"/>
    <rect style="fill: none; fill-opacity:0; stroke-width: 2.35099e-037; stroke: #b0f4a9" x="6" y="118" width="74" height="28"/>
  </g>
  <g>
    <rect style="fill: #b0f4a9" x="220" y="80" width="82" height="68"/>
    <rect style="fill: none; fill-opacity:0; stroke-width: 2.35099e-037; stroke: #b0f4a9" x="220" y="80" width="82" height="68"/>
  </g>
  <line style="fill: none; fill-opacity:0; stroke-width: 1; stroke: #0000ff" x1="80" y1="40" x2="80" y2="146"/>
  <text font-size="5.64444" style="fill: #000000;text-anchor:end;font-family:sans-serif;font-style:normal;font-weight:normal" x="74" y="53.8389">
    <tspan x="74" y="53.8389">bind() function:</tspan>
    <tspan x="74" y="60.8944">Send ECMD_BIND to</tspan>
    <tspan x="74" y="67.95">server path and set</tspan>
    <tspan x="74" y="75.0056">binding state to</tspan>
    <tspan x="74" y="82.0611">BINDING_NOW</tspan>
  </text>
  <text font-size="6.77333" style="fill: #000000;text-anchor:end;font-family:sans-serif;font-style:normal;font-weight:700" x="72" y="36.0917">
    <tspan x="72" y="36.0917">Client</tspan>
    <tspan x="72" y="44.5583">binding</tspan>
  </text>
  <line style="fill: none; fill-opacity:0; stroke-width: 1; stroke: #0000ff" x1="220" y1="40" x2="220" y2="148"/>
  <text font-size="5.64444" style="fill: #000000;text-anchor:start;font-family:sans-serif;font-style:normal;font-weight:normal" x="226" y="69.8389">
    <tspan x="226" y="69.8389">ECMD_BIND received:</tspan>
    <tspan x="226" y="76.8944">Send ECMD_BIND_REPLY</tspan>
    <tspan x="226" y="83.95">with property value to </tspan>
    <tspan x="226" y="91.0056">reply path. Set binding</tspan>
    <tspan x="226" y="98.0611">state to BINDING_OK.</tspan>
  </text>
  <g>
    <line style="fill: none; fill-opacity:0; stroke-width: 1; stroke: #ff0000" x1="82.4091" y1="57.0832" x2="207.037" y2="78.1472"/>
    <path style="fill: #ffffff" d="M 76.493 56.0833 C 76.743,54.6043 78.472,53.3753 79.951,53.6252 C 81.43,53.8752 82.6591,55.6042 82.4091,57.0832 C 82.1591,58.5623 80.4301,59.7913 78.9511,59.5413 C 77.4721,59.2913 76.243,57.5623 76.493,56.0833z"/>
    <path style="fill: none; fill-opacity:0; stroke-width: 1; stroke: #ff0000" d="M 76.493 56.0833 C 76.743,54.6043 78.472,53.3753 79.951,53.6252 C 81.43,53.8752 82.6591,55.6042 82.4091,57.0832 C 82.1591,58.5623 80.4301,59.7913 78.9511,59.5413 C 77.4721,59.2913 76.243,57.5623 76.493,56.0833"/>
    <polygon style="fill: none; fill-opacity:0; stroke-width: 1; stroke: #ff0000" points="206.204,83.0773 216.898,79.8137 207.871,73.2171 "/>
  </g>
  <text font-size="6.77333" style="fill: #000000;text-anchor:start;font-family:sans-serif;font-style:normal;font-weight:700" x="226" y="38.0917">
    <tspan x="226" y="38.0917">Server</tspan>
    <tspan x="226" y="46.5583">binding</tspan>
  </text>
  <g>
    <line style="fill: none; fill-opacity:0; stroke-width: 1; stroke: #ff0000" x1="217.715" y1="81.6585" x2="90.75" y2="115.163"/>
    <path style="fill: #ffffff" d="M 223.517 80.1276 C 223.899,81.5779 222.832,83.411 221.381,83.7937 C 219.931,84.1765 218.098,83.1089 217.715,81.6585 C 217.332,80.2082 218.4,78.3751 219.85,77.9923 C 221.301,77.6096 223.134,78.6772 223.517,80.1276z"/>
    <path style="fill: none; fill-opacity:0; stroke-width: 1; stroke: #ff0000" d="M 223.517 80.1276 C 223.899,81.5779 222.832,83.411 221.381,83.7937 C 219.931,84.1765 218.098,83.1089 217.715,81.6585 C 217.332,80.2082 218.4,78.3751 219.85,77.9923 C 221.301,77.6096 223.134,78.6772 223.517,80.1276"/>
    <polygon style="fill: none; fill-opacity:0; stroke-width: 1; stroke: #ff0000" points="89.4743,110.329 81.081,117.715 92.0258,119.998 "/>
  </g>
  <text font-size="6.77333" style="fill: #000000;text-anchor:middle;font-family:sans-serif;font-style:normal;font-weight:700" x="152" y="22.325">
    <tspan x="152" y="22.325">case 1: Binding EBIND_DEFAULT</tspan>
  </text>
  <text font-size="5.64444" style="fill: #000000;text-anchor:end;font-family:sans-serif;font-style:normal;font-weight:normal" x="72" y="102.311">
    <tspan x="72" y="102.311">ECMD_BIND_REPLY</tspan>
    <tspan x="72" y="109.367">received: Set property</tspan>
    <tspan x="72" y="116.422">value received from</tspan>
    <tspan x="72" y="123.478">server end. Set</tspan>
    <tspan x="72" y="130.533">binding state to</tspan>
    <tspan x="72" y="137.589">BINDING_OK.</tspan>
  </text>
  <g>
    <rect style="fill: #ff0000" x="133.125" y="64.7" width="33.75" height="6.6"/>
    <text font-size="5.64444" style="fill: #ffffff;text-anchor:middle;font-family:sans-serif;font-style:normal;font-weight:normal" x="150" y="69.95">
      <tspan x="150" y="69.95">ECMD_BIND</tspan>
    </text>
  </g>
  <g>
    <rect style="fill: #b0f4a9" x="312" y="42" width="74" height="26"/>
    <rect style="fill: none; fill-opacity:0; stroke-width: 2.35099e-037; stroke: #b0f4a9" x="312" y="42" width="74" height="26"/>
  </g>
  <g>
    <rect style="fill: #b0f4a9" x="526" y="42" width="82" height="52"/>
    <rect style="fill: none; fill-opacity:0; stroke-width: 2.35099e-037; stroke: #b0f4a9" x="526" y="42" width="82" height="52"/>
  </g>
  <line style="fill: none; fill-opacity:0; stroke-width: 1; stroke: #0000ff" x1="386" y1="42" x2="386" y2="148"/>
  <text font-size="5.64444" style="fill: #000000;text-anchor:end;font-family:sans-serif;font-style:normal;font-weight:normal" x="380" y="59.3667">
    <tspan x="380" y="59.3667">Binding deleted:</tspan>
    <tspan x="380" y="66.4222">Send ECMD_UNBIND</tspan>
    <tspan x="380" y="73.4778">to reply path (or server</tspan>
    <tspan x="380" y="80.5333">path if no reply path)</tspan>
  </text>
  <text font-size="6.77333" style="fill: #000000;text-anchor:end;font-family:sans-serif;font-style:normal;font-weight:700" x="378" y="38.0917">
    <tspan x="378" y="38.0917">Client</tspan>
    <tspan x="378" y="46.5583">binding</tspan>
  </text>
  <line style="fill: none; fill-opacity:0; stroke-width: 1; stroke: #0000ff" x1="526" y1="42" x2="526" y2="154"/>
  <text font-size="5.64444" style="fill: #000000;text-anchor:start;font-family:sans-serif;font-style:normal;font-weight:normal" x="532" y="85.3667">
    <tspan x="532" y="85.3667">ECMD_UNBIND received:</tspan>
    <tspan x="532" y="92.4222">Send ECMD_SRV_UNBIND</tspan>
    <tspan x="532" y="99.4778">to reply path and delete</tspan>
    <tspan x="532" y="106.533">the binding.</tspan>
  </text>
  <g>
    <line style="fill: none; fill-opacity:0; stroke-width: 1; stroke: #ff0000" x1="388.407" y1="69.0983" x2="511.042" y2="90.1215"/>
    <path style="fill: #ffffff" d="M 382.493 68.0845 C 382.746,66.606 384.478,65.3811 385.957,65.6345 C 387.435,65.888 388.66,67.6198 388.407,69.0983 C 388.153,70.5767 386.421,71.8017 384.943,71.5482 C 383.464,71.2948 382.239,69.5629 382.493,68.0845z"/>
    <path style="fill: none; fill-opacity:0; stroke-width: 1; stroke: #ff0000" d="M 382.493 68.0845 C 382.746,66.606 384.478,65.3811 385.957,65.6345 C 387.435,65.888 388.66,67.6198 388.407,69.0983 C 388.153,70.5767 386.421,71.8017 384.943,71.5482 C 383.464,71.2948 382.239,69.5629 382.493,68.0845"/>
    <polygon style="fill: none; fill-opacity:0; stroke-width: 1; stroke: #ff0000" points="510.197,95.0496 520.898,91.8111 511.887,85.1933 "/>
  </g>
  <text font-size="6.77333" style="fill: #000000;text-anchor:start;font-family:sans-serif;font-style:normal;font-weight:700" x="532" y="40.0917">
    <tspan x="532" y="40.0917">Server</tspan>
    <tspan x="532" y="48.5583">binding</tspan>
  </text>
  <g>
    <line style="fill: none; fill-opacity:0; stroke-width: 1; stroke: #ff0000" x1="521.743" y1="93.7624" x2="396.702" y2="128.985"/>
    <path style="fill: #ffffff" d="M 527.519 92.1356 C 527.925,93.5794 526.888,95.4299 525.445,95.8366 C 524.001,96.2433 522.15,95.2062 521.743,93.7624 C 521.337,92.3186 522.374,90.4681 523.818,90.0614 C 525.262,89.6547 527.112,90.6918 527.519,92.1356z"/>
    <path style="fill: none; fill-opacity:0; stroke-width: 1; stroke: #ff0000" d="M 527.519 92.1356 C 527.925,93.5794 526.888,95.4299 525.445,95.8366 C 524.001,96.2433 522.15,95.2062 521.743,93.7624 C 521.337,92.3186 522.374,90.4681 523.818,90.0614 C 525.262,89.6547 527.112,90.6918 527.519,92.1356"/>
    <polygon style="fill: none; fill-opacity:0; stroke-width: 1; stroke: #ff0000" points="395.346,124.173 387.076,131.697 398.057,133.798 "/>
  </g>
  <text font-size="6.77333" style="fill: #000000;text-anchor:middle;font-family:sans-serif;font-style:normal;font-weight:700" x="458" y="24.325">
    <tspan x="458" y="24.325">case 2: Client eBinding deleted</tspan>
  </text>
  <text font-size="5.64444" style="fill: #000000;text-anchor:end;font-family:sans-serif;font-style:normal;font-weight:normal" x="380" y="112.783">
    <tspan x="380" y="112.783">ECMD_SRV_UNBIND</tspan>
    <tspan x="380" y="119.839">received: Not</tspan>
    <tspan x="380" y="126.894">processed in this case</tspan>
    <tspan x="380" y="133.95">since the binding has</tspan>
    <tspan x="380" y="141.006">been deleted. Needed</tspan>
    <tspan x="380" y="148.061">for other disconnect</tspan>
    <tspan x="380" y="155.117">cases.</tspan>
  </text>
  <text font-size="12.8" style="fill: #000000;text-anchor:start;font-family:sans-serif;font-style:normal;font-weight:normal" x="118" y="52">
    <tspan x="118" y="52"></tspan>
  </text>
  <g>
    <rect style="fill: #ff0000" x="122.95" y="96.7" width="54.1" height="6.6"/>
    <text font-size="5.64444" style="fill: #ffffff;text-anchor:middle;font-family:sans-serif;font-style:normal;font-weight:normal" x="150" y="101.95">
      <tspan x="150" y="101.95">ECMD_BIND_REPLY</tspan>
    </text>
  </g>
  <text font-size="5.64444" style="fill: #000000;text-anchor:start;font-family:sans-serif;font-style:normal;font-weight:normal" x="8" y="158.422">
    <tspan x="8" y="158.422">The light green background represents time when property changes are forwarded</tspan>
    <tspan x="8" y="165.478">through the binding.</tspan>
  </text>
  <g>
    <rect style="fill: #ff0000" x="436.925" y="78.7" width="42.15" height="6.6"/>
    <text font-size="5.64444" style="fill: #ffffff;text-anchor:middle;font-family:sans-serif;font-style:normal;font-weight:normal" x="458" y="83.95">
      <tspan x="458" y="83.95">ECMD_UNBIND</tspan>
    </text>
  </g>
  <g>
    <rect style="fill: #ff0000" x="429.8" y="108.7" width="56.4" height="6.6"/>
    <text font-size="5.64444" style="fill: #ffffff;text-anchor:middle;font-family:sans-serif;font-style:normal;font-weight:normal" x="458" y="113.95">
      <tspan x="458" y="113.95">ECMD_SRV_UNBIND</tspan>
    </text>
  </g>
  <g>
    <rect style="fill: #b0f4a9" x="620" y="42" width="74" height="64"/>
    <rect style="fill: none; fill-opacity:0; stroke-width: 2.35099e-037; stroke: #b0f4a9" x="620" y="42" width="74" height="64"/>
  </g>
  <g>
    <rect style="fill: #b0f4a9" x="834" y="42" width="82" height="26"/>
    <rect style="fill: none; fill-opacity:0; stroke-width: 2.35099e-037; stroke: #b0f4a9" x="834" y="42" width="82" height="26"/>
  </g>
  <line style="fill: none; fill-opacity:0; stroke-width: 1; stroke: #0000ff" x1="694" y1="42" x2="694" y2="148"/>
  <text font-size="5.64444" style="fill: #000000;text-anchor:start;font-family:sans-serif;font-style:normal;font-weight:normal" x="840" y="60.8944">
    <tspan x="840" y="60.8944">Server binding deleted:</tspan>
    <tspan x="840" y="67.95">Send ECMD_SRV_UNBIND</tspan>
    <tspan x="840" y="75.0056">to reply path.</tspan>
  </text>
  <text font-size="6.77333" style="fill: #000000;text-anchor:end;font-family:sans-serif;font-style:normal;font-weight:700" x="686" y="38.0917">
    <tspan x="686" y="38.0917">Client</tspan>
    <tspan x="686" y="46.5583">binding</tspan>
  </text>
  <line style="fill: none; fill-opacity:0; stroke-width: 1; stroke: #0000ff" x1="834" y1="42" x2="834" y2="154"/>
  <text font-size="5.64444" style="fill: #000000;text-anchor:start;font-family:sans-serif;font-style:normal;font-weight:normal" x="840" y="119.839">
    <tspan x="840" y="119.839">ECMD_UNBIND received:</tspan>
    <tspan x="840" y="126.894">Not processed in this case</tspan>
    <tspan x="840" y="133.95">since the binding has</tspan>
    <tspan x="840" y="141.006">been deleted. Needed for</tspan>
    <tspan x="840" y="148.061">other cases.</tspan>
  </text>
  <g>
    <line style="fill: none; fill-opacity:0; stroke-width: 1; stroke: #ff0000" x1="698.394" y1="107.171" x2="823.064" y2="129.998"/>
    <path style="fill: #ffffff" d="M 692.492 106.09 C 692.762,104.615 694.508,103.409 695.983,103.679 C 697.459,103.95 698.664,105.695 698.394,107.171 C 698.124,108.646 696.378,109.851 694.902,109.581 C 693.427,109.311 692.222,107.566 692.492,106.09z"/>
    <path style="fill: none; fill-opacity:0; stroke-width: 1; stroke: #ff0000" d="M 692.492 106.09 C 692.762,104.615 694.508,103.409 695.983,103.679 C 697.459,103.95 698.664,105.695 698.394,107.171 C 698.124,108.646 696.378,109.851 694.902,109.581 C 693.427,109.311 692.222,107.566 692.492,106.09"/>
    <polygon style="fill: none; fill-opacity:0; stroke-width: 1; stroke: #ff0000" points="822.163,134.916 832.9,131.799 823.964,125.079 "/>
  </g>
  <text font-size="6.77333" style="fill: #000000;text-anchor:start;font-family:sans-serif;font-style:normal;font-weight:700" x="840" y="40.0917">
    <tspan x="840" y="40.0917">Server</tspan>
    <tspan x="840" y="48.5583">binding</tspan>
  </text>
  <g>
    <line style="fill: none; fill-opacity:0; stroke-width: 1; stroke: #ff0000" x1="829.757" y1="67.8096" x2="708.678" y2="102.905"/>
    <path style="fill: #ffffff" d="M 835.52 66.1392 C 835.937,67.5799 834.914,69.4382 833.474,69.8558 C 832.033,70.2734 830.175,69.2503 829.757,67.8096 C 829.339,66.3689 830.362,64.5106 831.803,64.093 C 833.244,63.6754 835.102,64.6985 835.52,66.1392z"/>
    <path style="fill: none; fill-opacity:0; stroke-width: 1; stroke: #ff0000" d="M 835.52 66.1392 C 835.937,67.5799 834.914,69.4382 833.474,69.8558 C 832.033,70.2734 830.175,69.2503 829.757,67.8096 C 829.339,66.3689 830.362,64.5106 831.803,64.093 C 833.244,63.6754 835.102,64.6985 835.52,66.1392"/>
    <polygon style="fill: none; fill-opacity:0; stroke-width: 1; stroke: #ff0000" points="707.287,98.1025 699.074,105.689 710.07,107.707 "/>
  </g>
  <text font-size="6.77333" style="fill: #000000;text-anchor:middle;font-family:sans-serif;font-style:normal;font-weight:700" x="766" y="24.325">
    <tspan x="766" y="24.325">case 3: Server eBinding deleted</tspan>
  </text>
  <text font-size="5.64444" style="fill: #000000;text-anchor:end;font-family:sans-serif;font-style:normal;font-weight:normal" x="690" y="93.8389">
    <tspan x="690" y="93.8389">ECMD_SRV_UNBIND</tspan>
    <tspan x="690" y="100.894">received: Set binding</tspan>
    <tspan x="690" y="107.95">state DISCONNECTED</tspan>
    <tspan x="690" y="115.006">and send ECMD_UNBIND</tspan>
    <tspan x="690" y="122.061">to reply path.</tspan>
  </text>
  <g>
    <rect style="fill: #ff0000" x="742.925" y="114.7" width="42.15" height="6.6"/>
    <text font-size="5.64444" style="fill: #ffffff;text-anchor:middle;font-family:sans-serif;font-style:normal;font-weight:normal" x="764" y="119.95">
      <tspan x="764" y="119.95">ECMD_UNBIND</tspan>
    </text>
  </g>
  <g>
    <rect style="fill: #ff0000" x="743.8" y="80.7" width="56.4" height="6.6"/>
    <text font-size="5.64444" style="fill: #ffffff;text-anchor:middle;font-family:sans-serif;font-style:normal;font-weight:normal" x="772" y="85.95">
      <tspan x="772" y="85.95">ECMD_SRV_UNBIND</tspan>
    </text>
  </g>
  <g>
    <rect style="fill: #b0f4a9" x="6" y="534" width="74" height="90"/>
    <rect style="fill: none; fill-opacity:0; stroke-width: 2.35099e-037; stroke: #b0f4a9" x="6" y="534" width="74" height="90"/>
  </g>
  <g>
    <rect style="fill: #b0f4a9" x="220" y="558" width="82" height="68"/>
    <rect style="fill: none; fill-opacity:0; stroke-width: 2.35099e-037; stroke: #b0f4a9" x="220" y="558" width="82" height="68"/>
  </g>
  <line style="fill: none; fill-opacity:0; stroke-width: 1; stroke: #0000ff" x1="80" y1="518" x2="80" y2="624"/>
  <text font-size="5.64444" style="fill: #000000;text-anchor:end;font-family:sans-serif;font-style:normal;font-weight:normal" x="74" y="528.311">
    <tspan x="74" y="528.311">bind() function:</tspan>
    <tspan x="74" y="535.367">Send ECMD_BIND with</tspan>
    <tspan x="74" y="542.422">property value to</tspan>
    <tspan x="74" y="549.478">server path and set</tspan>
    <tspan x="74" y="556.533">binding state to</tspan>
    <tspan x="74" y="563.589">BINDING_NOW</tspan>
  </text>
  <text font-size="6.77333" style="fill: #000000;text-anchor:end;font-family:sans-serif;font-style:normal;font-weight:700" x="72" y="514.092">
    <tspan x="72" y="514.092">Client</tspan>
    <tspan x="72" y="522.558">binding</tspan>
  </text>
  <line style="fill: none; fill-opacity:0; stroke-width: 1; stroke: #0000ff" x1="220" y1="518" x2="220" y2="626"/>
  <text font-size="5.64444" style="fill: #000000;text-anchor:start;font-family:sans-serif;font-style:normal;font-weight:normal" x="226" y="544.311">
    <tspan x="226" y="544.311">ECMD_BIND received:</tspan>
    <tspan x="226" y="551.367">Set initial property value</tspan>
    <tspan x="226" y="558.422">received from client. </tspan>
    <tspan x="226" y="565.478">Send ECMD_BIND_REPLY</tspan>
    <tspan x="226" y="572.533">to reply path. Set binding</tspan>
    <tspan x="226" y="579.589">state to BINDING_OK.</tspan>
  </text>
  <g>
    <line style="fill: none; fill-opacity:0; stroke-width: 1; stroke: #ff0000" x1="82.4091" y1="535.083" x2="207.037" y2="556.147"/>
    <path style="fill: #ffffff" d="M 76.493 534.083 C 76.743,532.604 78.472,531.375 79.951,531.625 C 81.43,531.875 82.6591,533.604 82.4091,535.083 C 82.1591,536.562 80.4301,537.791 78.9511,537.541 C 77.4721,537.291 76.243,535.562 76.493,534.083z"/>
    <path style="fill: none; fill-opacity:0; stroke-width: 1; stroke: #ff0000" d="M 76.493 534.083 C 76.743,532.604 78.472,531.375 79.951,531.625 C 81.43,531.875 82.6591,533.604 82.4091,535.083 C 82.1591,536.562 80.4301,537.791 78.9511,537.541 C 77.4721,537.291 76.243,535.562 76.493,534.083"/>
    <polygon style="fill: none; fill-opacity:0; stroke-width: 1; stroke: #ff0000" points="206.204,561.077 216.898,557.814 207.871,551.217 "/>
  </g>
  <text font-size="6.77333" style="fill: #000000;text-anchor:start;font-family:sans-serif;font-style:normal;font-weight:700" x="226" y="516.092">
    <tspan x="226" y="516.092">Server</tspan>
    <tspan x="226" y="524.558">binding</tspan>
  </text>
  <g>
    <line style="fill: none; fill-opacity:0; stroke-width: 1; stroke: #ff0000" x1="217.715" y1="559.659" x2="90.75" y2="593.163"/>
    <path style="fill: #ffffff" d="M 223.517 558.128 C 223.899,559.578 222.832,561.411 221.381,561.794 C 219.931,562.176 218.098,561.109 217.715,559.659 C 217.332,558.208 218.4,556.375 219.85,555.992 C 221.301,555.61 223.134,556.677 223.517,558.128z"/>
    <path style="fill: none; fill-opacity:0; stroke-width: 1; stroke: #ff0000" d="M 223.517 558.128 C 223.899,559.578 222.832,561.411 221.381,561.794 C 219.931,562.176 218.098,561.109 217.715,559.659 C 217.332,558.208 218.4,556.375 219.85,555.992 C 221.301,555.61 223.134,556.677 223.517,558.128"/>
    <polygon style="fill: none; fill-opacity:0; stroke-width: 1; stroke: #ff0000" points="89.4743,588.329 81.081,595.715 92.0258,597.998 "/>
  </g>
  <text font-size="6.77333" style="fill: #000000;text-anchor:middle;font-family:sans-serif;font-style:normal;font-weight:700" x="152" y="500.325">
    <tspan x="152" y="500.325">case 4: Binding EBIND_CLIENTINIT</tspan>
  </text>
  <text font-size="5.64444" style="fill: #000000;text-anchor:end;font-family:sans-serif;font-style:normal;font-weight:normal" x="72" y="583.839">
    <tspan x="72" y="583.839">ECMD_BIND_REPLY</tspan>
    <tspan x="72" y="590.894">received: Memorize</tspan>
    <tspan x="72" y="597.95">reply address. Set</tspan>
    <tspan x="72" y="605.006">binding state to</tspan>
    <tspan x="72" y="612.061">BINDING_OK.</tspan>
  </text>
  <g>
    <rect style="fill: #ff0000" x="133.125" y="542.7" width="33.75" height="6.6"/>
    <text font-size="5.64444" style="fill: #ffffff;text-anchor:middle;font-family:sans-serif;font-style:normal;font-weight:normal" x="150" y="547.95">
      <tspan x="150" y="547.95">ECMD_BIND</tspan>
    </text>
  </g>
  <text font-size="12.8" style="fill: #000000;text-anchor:start;font-family:sans-serif;font-style:normal;font-weight:normal" x="118" y="530">
    <tspan x="118" y="530"></tspan>
  </text>
  <g>
    <rect style="fill: #ff0000" x="122.95" y="574.7" width="54.1" height="6.6"/>
    <text font-size="5.64444" style="fill: #ffffff;text-anchor:middle;font-family:sans-serif;font-style:normal;font-weight:normal" x="150" y="579.95">
      <tspan x="150" y="579.95">ECMD_BIND_REPLY</tspan>
    </text>
  </g>
  <text font-size="5.64444" style="fill: #000000;text-anchor:start;font-family:sans-serif;font-style:normal;font-weight:normal" x="8" y="636.422">
    <tspan x="8" y="636.422">The light green background represents time when property changes are forwarded</tspan>
    <tspan x="8" y="643.478">through the binding.</tspan>
  </text>
  <g>
    <rect style="fill: #b0f4a9" x="310" y="604" width="44" height="20"/>
    <rect style="fill: none; fill-opacity:0; stroke-width: 2.35099e-037; stroke: #b0f4a9" x="310" y="604" width="44" height="20"/>
  </g>
  <g>
    <rect style="fill: #b0f4a9" x="554" y="556" width="54" height="68"/>
    <rect style="fill: none; fill-opacity:0; stroke-width: 2.35099e-037; stroke: #b0f4a9" x="554" y="556" width="54" height="68"/>
  </g>
  <line style="fill: none; fill-opacity:0; stroke-width: 1; stroke: #0000ff" x1="354" y1="518" x2="354" y2="624"/>
  <text font-size="5.64444" style="fill: #000000;text-anchor:end;font-family:sans-serif;font-style:normal;font-weight:normal" x="350" y="535.95">
    <tspan x="350" y="535.95">bind()</tspan>
  </text>
  <text font-size="6.77333" style="fill: #000000;text-anchor:end;font-family:sans-serif;font-style:normal;font-weight:700" x="346" y="514.092">
    <tspan x="346" y="514.092">Client</tspan>
    <tspan x="346" y="522.558">binding</tspan>
  </text>
  <line style="fill: none; fill-opacity:0; stroke-width: 1; stroke: #0000ff" x1="554" y1="516" x2="554" y2="624"/>
  <text font-size="5.64444" style="fill: #000000;text-anchor:start;font-family:sans-serif;font-style:normal;font-weight:normal" x="558" y="557.95">
    <tspan x="558" y="557.95">ECMD_BIND</tspan>
  </text>
  <g>
    <line style="fill: none; fill-opacity:0; stroke-width: 1; stroke: #ff0000" x1="358.468" y1="534.647" x2="540.937" y2="552.894"/>
    <path style="fill: #ffffff" d="M 352.498 534.05 C 352.647,532.557 354.289,531.214 355.781,531.363 C 357.274,531.512 358.617,533.154 358.468,534.647 C 358.318,536.139 356.677,537.483 355.184,537.333 C 353.692,537.184 352.348,535.542 352.498,534.05z"/>
    <path style="fill: none; fill-opacity:0; stroke-width: 1; stroke: #ff0000" d="M 352.498 534.05 C 352.647,532.557 354.289,531.214 355.781,531.363 C 357.274,531.512 358.617,533.154 358.468,534.647 C 358.318,536.139 356.677,537.483 355.184,537.333 C 353.692,537.184 352.348,535.542 352.498,534.05"/>
    <polygon style="fill: none; fill-opacity:0; stroke-width: 1; stroke: #ff0000" points="540.44,557.869 550.888,553.889 541.435,547.919 "/>
  </g>
  <text font-size="6.77333" style="fill: #000000;text-anchor:start;font-family:sans-serif;font-style:normal;font-weight:700" x="560" y="514.092">
    <tspan x="560" y="514.092">Server</tspan>
    <tspan x="560" y="522.558">binding</tspan>
  </text>
  <g>
    <line style="fill: none; fill-opacity:0; stroke-width: 1; stroke: #ff0000" x1="551.687" y1="555.547" x2="364.798" y2="601.353"/>
    <path style="fill: #ffffff" d="M 557.514 554.119 C 557.871,555.576 556.772,557.39 555.315,557.747 C 553.858,558.104 552.044,557.004 551.687,555.547 C 551.33,554.09 552.43,552.277 553.886,551.919 C 555.343,551.562 557.157,552.662 557.514,554.119z"/>
    <path style="fill: none; fill-opacity:0; stroke-width: 1; stroke: #ff0000" d="M 557.514 554.119 C 557.871,555.576 556.772,557.39 555.315,557.747 C 553.858,558.104 552.044,557.004 551.687,555.547 C 551.33,554.09 552.43,552.277 553.886,551.919 C 555.343,551.562 557.157,552.662 557.514,554.119"/>
    <polygon style="fill: none; fill-opacity:0; stroke-width: 1; stroke: #ff0000" points="363.608,596.497 355.086,603.734 365.989,606.21 "/>
  </g>
  <text font-size="6.77333" style="fill: #000000;text-anchor:middle;font-family:sans-serif;font-style:normal;font-weight:700" x="456" y="500.325">
    <tspan x="456" y="500.325">case 5: Binding through eConnection</tspan>
  </text>
  <text font-size="5.64444" style="fill: #000000;text-anchor:end;font-family:sans-serif;font-style:normal;font-weight:normal" x="350" y="602.894">
    <tspan x="350" y="602.894">ECMD_BIND</tspan>
    <tspan x="350" y="609.95">_REPLY</tspan>
    <tspan x="350" y="617.006"></tspan>
  </text>
  <g>
    <rect style="fill: #ff0000" x="361.125" y="534.7" width="33.75" height="6.6"/>
    <text font-size="5.64444" style="fill: #ffffff;text-anchor:middle;font-family:sans-serif;font-style:normal;font-weight:normal" x="378" y="539.95">
      <tspan x="378" y="539.95">ECMD_BIND</tspan>
    </text>
  </g>
  <text font-size="12.8" style="fill: #000000;text-anchor:start;font-family:sans-serif;font-style:normal;font-weight:normal" x="438" y="530">
    <tspan x="438" y="530"></tspan>
  </text>
  <g>
    <rect style="fill: #ff0000" x="490.95" y="560.7" width="54.1" height="6.6"/>
    <text font-size="5.64444" style="fill: #ffffff;text-anchor:middle;font-family:sans-serif;font-style:normal;font-weight:normal" x="518" y="565.95">
      <tspan x="518" y="565.95">ECMD_BIND_REPLY</tspan>
    </text>
  </g>
  <text font-size="5.64444" style="fill: #000000;text-anchor:start;font-family:sans-serif;font-style:normal;font-weight:normal" x="312" y="643.25">
    <tspan x="312" y="643.25">eConnection maintains list of bindings trough it. This enables controlled unbinding when connection</tspan>
    <tspan x="312" y="650.306">is broken, and automatic reconnect when connection comes back up. </tspan>
    <tspan x="312" y="657.361"></tspan>
    <tspan x="312" y="664.417">ECMD_BIND commands are recorded, regardless if connection is up or down. If connection is down</tspan>
    <tspan x="312" y="671.472">when ECMD_BIND is received, the connection sends ECMD_SRV_UNBIND reply back to client binding.</tspan>
    <tspan x="312" y="678.528"></tspan>
    <tspan x="312" y="685.583">ECMD_BIND_REPLY commands are recorded only when connection is up. When connection is down,</tspan>
    <tspan x="312" y="692.639">the connection replies with immediate ECMD_UNBIND to server binding.</tspan>
  </text>
  <text font-size="5.64444" style="fill: #000000;text-anchor:end;font-family:sans-serif;font-style:normal;font-weight:normal" x="438" y="520.422">
    <tspan x="438" y="520.422">client side</tspan>
    <tspan x="438" y="527.478">eConnection</tspan>
  </text>
  <text font-size="5.64444" style="fill: #000000;text-anchor:start;font-family:sans-serif;font-style:normal;font-weight:normal" x="478" y="520.422">
    <tspan x="478" y="520.422">server side</tspan>
    <tspan x="478" y="527.478">eConnection</tspan>
  </text>
  <g>
    <rect style="fill: #e5e5e5" x="402" y="558" width="48" height="18"/>
    <rect style="fill: none; fill-opacity:0; stroke-width: 0.4; stroke: #ff0000" x="402" y="558" width="48" height="18"/>
  </g>
  <text font-size="5.64444" style="fill: #000000;text-anchor:middle;font-family:sans-serif;font-style:normal;font-weight:normal" x="426" y="565.422">
    <tspan x="426" y="565.422">ECMD_BIND</tspan>
    <tspan x="426" y="572.478">reply to path</tspan>
  </text>
  <g>
    <line style="fill: none; fill-opacity:0; stroke-width: 1; stroke: #ff0000" x1="426" y1="544.5" x2="426" y2="546.882"/>
    <path style="fill: #ffffff" d="M 426 538.5 C 427.5,538.5 429,540 429,541.5 C 429,543 427.5,544.5 426,544.5 C 424.5,544.5 423,543 423,541.5 C 423,540 424.5,538.5 426,538.5z"/>
    <path style="fill: none; fill-opacity:0; stroke-width: 1; stroke: #ff0000" d="M 426 538.5 C 427.5,538.5 429,540 429,541.5 C 429,543 427.5,544.5 426,544.5 C 424.5,544.5 423,543 423,541.5 C 423,540 424.5,538.5 426,538.5"/>
    <polygon style="fill: none; fill-opacity:0; stroke-width: 1; stroke: #ff0000" points="421,546.882 426,556.882 431,546.882 "/>
  </g>
  <g>
    <rect style="fill: #e5e5e5" x="466" y="590" width="56" height="20"/>
    <rect style="fill: none; fill-opacity:0; stroke-width: 0.4; stroke: #ff0000" x="466" y="590" width="56" height="20"/>
  </g>
  <text font-size="5.64444" style="fill: #000000;text-anchor:middle;font-family:sans-serif;font-style:normal;font-weight:normal" x="494" y="598.422">
    <tspan x="494" y="598.422">ECMD_BIND_REPLY</tspan>
    <tspan x="494" y="605.478">reply to path</tspan>
  </text>
  <g>
    <line style="fill: none; fill-opacity:0; stroke-width: 1; stroke: #ff0000" x1="494" y1="572.5" x2="494" y2="578.882"/>
    <path style="fill: #ffffff" d="M 494 566.5 C 495.5,566.5 497,568 497,569.5 C 497,571 495.5,572.5 494,572.5 C 492.5,572.5 491,571 491,569.5 C 491,568 492.5,566.5 494,566.5z"/>
    <path style="fill: none; fill-opacity:0; stroke-width: 1; stroke: #ff0000" d="M 494 566.5 C 495.5,566.5 497,568 497,569.5 C 497,571 495.5,572.5 494,572.5 C 492.5,572.5 491,571 491,569.5 C 491,568 492.5,566.5 494,566.5"/>
    <polygon style="fill: none; fill-opacity:0; stroke-width: 1; stroke: #ff0000" points="489,578.882 494,588.882 499,578.882 "/>
  </g>
  <g>
    <rect style="fill: #add8e6" x="706" y="516" width="52" height="110"/>
    <rect style="fill: none; fill-opacity:0; stroke-width: 0.4; stroke: #bfbfbf" x="706" y="516" width="52" height="110"/>
  </g>
  <g>
    <rect style="fill: #add8e6" x="770" y="516" width="60" height="110"/>
    <rect style="fill: none; fill-opacity:0; stroke-width: 0.4; stroke: #bfbfbf" x="770" y="516" width="60" height="110"/>
  </g>
  <g>
    <rect style="fill: #b0f4a9" x="616" y="518" width="44" height="28"/>
    <rect style="fill: none; fill-opacity:0; stroke-width: 2.35099e-037; stroke: #b0f4a9" x="616" y="518" width="44" height="28"/>
  </g>
  <g>
    <rect style="fill: #b0f4a9" x="860" y="556" width="54" height="68"/>
    <rect style="fill: none; fill-opacity:0; stroke-width: 2.35099e-037; stroke: #b0f4a9" x="860" y="556" width="54" height="68"/>
  </g>
  <line style="fill: none; fill-opacity:0; stroke-width: 1; stroke: #0000ff" x1="660" y1="518" x2="660" y2="624"/>
  <text font-size="5.64444" style="fill: #000000;text-anchor:end;font-family:sans-serif;font-style:normal;font-weight:normal" x="656" y="584.894">
    <tspan x="656" y="584.894">Set binding</tspan>
    <tspan x="656" y="591.95">state</tspan>
    <tspan x="656" y="599.006">DISCON...</tspan>
  </text>
  <text font-size="6.77333" style="fill: #000000;text-anchor:end;font-family:sans-serif;font-style:normal;font-weight:700" x="652" y="514.092">
    <tspan x="652" y="514.092">Client</tspan>
    <tspan x="652" y="522.558">binding</tspan>
  </text>
  <line style="fill: none; fill-opacity:0; stroke-width: 1; stroke: #0000ff" x1="860" y1="516" x2="860" y2="624"/>
  <text font-size="5.64444" style="fill: #000000;text-anchor:start;font-family:sans-serif;font-style:normal;font-weight:normal" x="864" y="576.422">
    <tspan x="864" y="576.422">Delete</tspan>
    <tspan x="864" y="583.478">binding</tspan>
  </text>
  <g>
    <line style="fill: none; fill-opacity:0; stroke-width: 1; stroke: #ff0000" x1="831.94" y1="564.64" x2="851.84" y2="573.485"/>
    <path style="fill: #ffffff" d="M 826.457 562.203 C 827.066,560.832 829.046,560.071 830.417,560.68 C 831.787,561.289 832.549,563.269 831.94,564.64 C 831.331,566.011 829.351,566.772 827.98,566.163 C 826.609,565.554 825.848,563.574 826.457,562.203z"/>
    <path style="fill: none; fill-opacity:0; stroke-width: 1; stroke: #ff0000" d="M 826.457 562.203 C 827.066,560.832 829.046,560.071 830.417,560.68 C 831.787,561.289 832.549,563.269 831.94,564.64 C 831.331,566.011 829.351,566.772 827.98,566.163 C 826.609,565.554 825.848,563.574 826.457,562.203"/>
    <polygon style="fill: none; fill-opacity:0; stroke-width: 1; stroke: #ff0000" points="849.81,578.054 860.978,577.546 853.871,568.915 "/>
  </g>
  <text font-size="6.77333" style="fill: #000000;text-anchor:start;font-family:sans-serif;font-style:normal;font-weight:700" x="866" y="514.092">
    <tspan x="866" y="514.092">Server</tspan>
    <tspan x="866" y="522.558">binding</tspan>
  </text>
  <g>
    <line style="fill: none; fill-opacity:0; stroke-width: 1; stroke: #ff0000" x1="702.186" y1="568.907" x2="669.944" y2="585.028"/>
    <path style="fill: #ffffff" d="M 707.553 566.224 C 708.224,567.565 707.553,569.578 706.211,570.249 C 704.87,570.919 702.857,570.249 702.186,568.907 C 701.515,567.565 702.186,565.553 703.528,564.882 C 704.87,564.211 706.882,564.882 707.553,566.224z"/>
    <path style="fill: none; fill-opacity:0; stroke-width: 1; stroke: #ff0000" d="M 707.553 566.224 C 708.224,567.565 707.553,569.578 706.211,570.249 C 704.87,570.919 702.857,570.249 702.186,568.907 C 701.515,567.565 702.186,565.553 703.528,564.882 C 704.87,564.211 706.882,564.882 707.553,566.224"/>
    <polygon style="fill: none; fill-opacity:0; stroke-width: 1; stroke: #ff0000" points="667.708,580.556 661,589.5 672.18,589.5 "/>
  </g>
  <text font-size="6.77333" style="fill: #000000;text-anchor:middle;font-family:sans-serif;font-style:normal;font-weight:700" x="762" y="500.325">
    <tspan x="762" y="500.325">case 6: Connection breaks</tspan>
  </text>
  <g>
    <rect style="fill: #ff0000" x="677.05" y="569.731" width="17.9" height="16.5389"/>
    <text font-size="4.51556" style="fill: #ffffff;text-anchor:middle;font-family:sans-serif;font-style:normal;font-weight:normal" x="686" y="573.931">
      <tspan x="686" y="573.931">ECMD_</tspan>
      <tspan x="686" y="579.575">SRV_</tspan>
      <tspan x="686" y="585.219">UNBIND</tspan>
    </text>
  </g>
  <text font-size="12.8" style="fill: #000000;text-anchor:start;font-family:sans-serif;font-style:normal;font-weight:normal" x="744" y="530">
    <tspan x="744" y="530"></tspan>
  </text>
  <g>
    <rect style="fill: #ff0000" x="834.2" y="559.731" width="15.6" height="16.5389"/>
    <text font-size="4.51556" style="fill: #ffffff;text-anchor:middle;font-family:sans-serif;font-style:normal;font-weight:normal" x="842" y="563.931">
      <tspan x="842" y="563.931">ECMD_</tspan>
      <tspan x="842" y="569.575">BIND_</tspan>
      <tspan x="842" y="575.219">REPLY</tspan>
    </text>
  </g>
  <text font-size="5.64444" style="fill: #000000;text-anchor:start;font-family:sans-serif;font-style:normal;font-weight:normal" x="618" y="643.25">
    <tspan x="618" y="643.25">eConnection maintains list of bindings trough it. This enables controlled unbinding when connection</tspan>
    <tspan x="618" y="650.306">is broken, and automatic reconnect when connection comes back up. </tspan>
    <tspan x="618" y="657.361"></tspan>
    <tspan x="618" y="664.417">ECMD_BIND commands are recorded, regardless if connection is up or down. If connection is down</tspan>
    <tspan x="618" y="671.472">when ECMD_BIND is received, the connection sends ECMD_SRV_UNBIND reply back to client binding.</tspan>
    <tspan x="618" y="678.528"></tspan>
    <tspan x="618" y="685.583">ECMD_BIND_REPLY commands are recorded only when connection is up. When connection is down,</tspan>
    <tspan x="618" y="692.639">the connection replies with immediate ECMD_UNBIND to server binding.</tspan>
  </text>
  <text font-size="5.64444" style="fill: #000000;text-anchor:end;font-family:sans-serif;font-style:normal;font-weight:normal" x="744" y="520.422">
    <tspan x="744" y="520.422">client side</tspan>
    <tspan x="744" y="527.478">eConnection</tspan>
  </text>
  <text font-size="5.64444" style="fill: #000000;text-anchor:start;font-family:sans-serif;font-style:normal;font-weight:normal" x="784" y="520.422">
    <tspan x="784" y="520.422">server side</tspan>
    <tspan x="784" y="527.478">eConnection</tspan>
  </text>
  <g>
    <rect style="fill: #e5e5e5" x="708" y="606" width="48" height="18"/>
    <rect style="fill: none; fill-opacity:0; stroke-width: 0.4; stroke: #ff0000" x="708" y="606" width="48" height="18"/>
  </g>
  <text font-size="5.64444" style="fill: #000000;text-anchor:middle;font-family:sans-serif;font-style:normal;font-weight:normal" x="732" y="613.422">
    <tspan x="732" y="613.422">ECMD_BIND</tspan>
    <tspan x="732" y="620.478">reply to path</tspan>
  </text>
  <g>
    <line style="fill: none; fill-opacity:0; stroke-width: 1; stroke: #ff0000" x1="732" y1="603.5" x2="732" y2="599.118"/>
    <path style="fill: #ffffff" d="M 732 609.5 C 730.5,609.5 729,608 729,606.5 C 729,605 730.5,603.5 732,603.5 C 733.5,603.5 735,605 735,606.5 C 735,608 733.5,609.5 732,609.5z"/>
    <path style="fill: none; fill-opacity:0; stroke-width: 1; stroke: #ff0000" d="M 732 609.5 C 730.5,609.5 729,608 729,606.5 C 729,605 730.5,603.5 732,603.5 C 733.5,603.5 735,605 735,606.5 C 735,608 733.5,609.5 732,609.5"/>
    <polygon style="fill: none; fill-opacity:0; stroke-width: 1; stroke: #ff0000" points="737,599.118 732,589.118 727,599.118 "/>
  </g>
  <g>
    <rect style="fill: #e5e5e5" x="772" y="606" width="56" height="18"/>
    <rect style="fill: none; fill-opacity:0; stroke-width: 0.4; stroke: #ff0000" x="772" y="606" width="56" height="18"/>
  </g>
  <text font-size="5.64444" style="fill: #000000;text-anchor:middle;font-family:sans-serif;font-style:normal;font-weight:normal" x="800" y="613.422">
    <tspan x="800" y="613.422">ECMD_BIND_REPLY</tspan>
    <tspan x="800" y="620.478">reply to path</tspan>
  </text>
  <g>
    <line style="fill: none; fill-opacity:0; stroke-width: 1; stroke: #ff0000" x1="800" y1="603.5" x2="800" y2="599.118"/>
    <path style="fill: #ffffff" d="M 800 609.5 C 798.5,609.5 797,608 797,606.5 C 797,605 798.5,603.5 800,603.5 C 801.5,603.5 803,605 803,606.5 C 803,608 801.5,609.5 800,609.5z"/>
    <path style="fill: none; fill-opacity:0; stroke-width: 1; stroke: #ff0000" d="M 800 609.5 C 798.5,609.5 797,608 797,606.5 C 797,605 798.5,603.5 800,603.5 C 801.5,603.5 803,605 803,606.5 C 803,608 801.5,609.5 800,609.5"/>
    <polygon style="fill: none; fill-opacity:0; stroke-width: 1; stroke: #ff0000" points="805,599.118 800,589.118 795,599.118 "/>
  </g>
  <text font-size="5.64444" style="fill: #000000;text-anchor:middle;font-family:sans-serif;font-style:normal;font-weight:normal" x="732" y="552.311">
    <tspan x="732" y="552.311">Send ECMD_</tspan>
    <tspan x="732" y="559.367">SRV_UNBIND</tspan>
    <tspan x="732" y="566.422">to bindings</tspan>
    <tspan x="732" y="573.478">listed with</tspan>
    <tspan x="732" y="580.533">ECMD_BIND</tspan>
    <tspan x="732" y="587.589">reply address</tspan>
  </text>
  <g>
    <line style="fill: none; fill-opacity:0; stroke-width: 1; stroke: #ff0000" x1="764.579" y1="509.527" x2="747.852" y2="536.547"/>
    <path style="fill: #ffffff" d="M 767.737 504.425 C 769.012,505.215 769.498,507.28 768.709,508.555 C 767.919,509.83 765.854,510.316 764.579,509.527 C 763.303,508.737 762.817,506.672 763.607,505.397 C 764.396,504.121 766.461,503.636 767.737,504.425z"/>
    <path style="fill: none; fill-opacity:0; stroke-width: 1; stroke: #ff0000" d="M 767.737 504.425 C 769.012,505.215 769.498,507.28 768.709,508.555 C 767.919,509.83 765.854,510.316 764.579,509.527 C 763.303,508.737 762.817,506.672 763.607,505.397 C 764.396,504.121 766.461,503.636 767.737,504.425"/>
    <polygon style="fill: none; fill-opacity:0; stroke-width: 1; stroke: #ff0000" points="743.601,533.915 742.588,545.049 752.103,539.178 "/>
  </g>
  <text font-size="5.64444" style="fill: #000000;text-anchor:middle;font-family:sans-serif;font-style:normal;font-weight:normal" x="800" y="550.311">
    <tspan x="800" y="550.311">Send ECMD_</tspan>
    <tspan x="800" y="557.367">UNBIND to bindings</tspan>
    <tspan x="800" y="564.422">listed with</tspan>
    <tspan x="800" y="571.478">ECMD_BIND_REPLY</tspan>
    <tspan x="800" y="578.533">and remove entry</tspan>
    <tspan x="800" y="585.589">from list.</tspan>
  </text>
  <g>
    <line style="fill: none; fill-opacity:0; stroke-width: 1; stroke: #ff0000" x1="767.606" y1="509.408" x2="785.833" y2="536.749"/>
    <path style="fill: #ffffff" d="M 764.277 504.416 C 765.525,503.584 767.606,504 768.438,505.248 C 769.27,506.496 768.854,508.576 767.606,509.408 C 766.357,510.24 764.277,509.824 763.445,508.576 C 762.613,507.328 763.029,505.248 764.277,504.416z"/>
    <path style="fill: none; fill-opacity:0; stroke-width: 1; stroke: #ff0000" d="M 764.277 504.416 C 765.525,503.584 767.606,504 768.438,505.248 C 769.27,506.496 768.854,508.576 767.606,509.408 C 766.357,510.24 764.277,509.824 763.445,508.576 C 762.613,507.328 763.029,505.248 764.277,504.416"/>
    <polygon style="fill: none; fill-opacity:0; stroke-width: 1; stroke: #ff0000" points="781.673,539.523 791.38,545.07 789.993,533.976 "/>
  </g>
  <text font-size="5.64444" style="fill: #000000;text-anchor:start;font-family:sans-serif;font-style:normal;font-weight:normal" x="770" y="509.95">
    <tspan x="770" y="509.95">connection break</tspan>
  </text>
  <g>
    <rect style="fill: #b0f4a9" x="6" y="1004" width="74" height="130"/>
    <rect style="fill: none; fill-opacity:0; stroke-width: 2.35099e-037; stroke: #b0f4a9" x="6" y="1004" width="74" height="130"/>
  </g>
  <g>
    <rect style="fill: #b0f4a9" x="220" y="1004" width="82" height="132"/>
    <rect style="fill: none; fill-opacity:0; stroke-width: 2.35099e-037; stroke: #b0f4a9" x="220" y="1004" width="82" height="132"/>
  </g>
  <line style="fill: none; fill-opacity:0; stroke-width: 1; stroke: #0000ff" x1="80" y1="1004" x2="80" y2="1134"/>
  <text font-size="5.64444" style="fill: #000000;text-anchor:end;font-family:sans-serif;font-style:normal;font-weight:normal" x="76" y="1014.89">
    <tspan x="76" y="1014.89">changed() function:</tspan>
    <tspan x="76" y="1021.95">set changed flag in</tspan>
    <tspan x="76" y="1029.01">binding.</tspan>
  </text>
  <text font-size="6.77333" style="fill: #000000;text-anchor:end;font-family:sans-serif;font-style:normal;font-weight:700" x="70" y="998.092">
    <tspan x="70" y="998.092">Client</tspan>
    <tspan x="70" y="1006.56">binding</tspan>
  </text>
  <line style="fill: none; fill-opacity:0; stroke-width: 1; stroke: #0000ff" x1="220" y1="1004" x2="220" y2="1136"/>
  <text font-size="5.64444" style="fill: #000000;text-anchor:start;font-family:sans-serif;font-style:normal;font-weight:normal" x="226" y="1054.31">
    <tspan x="226" y="1054.31">Set property value</tspan>
    <tspan x="226" y="1061.37">received from client. </tspan>
    <tspan x="226" y="1068.42">Send ECMD_ACK to reply</tspan>
    <tspan x="226" y="1075.48">path. Since this is server,</tspan>
    <tspan x="226" y="1082.53">include propety value with </tspan>
    <tspan x="226" y="1089.59">ECMD_ACK.</tspan>
  </text>
  <g>
    <line style="fill: none; fill-opacity:0; stroke-width: 1; stroke: #ff0000" x1="82.4775" y1="1060.54" x2="208.92" y2="1071.08"/>
    <path style="fill: #ffffff" d="M 76.4983 1060.04 C 76.6228,1058.55 78.2422,1057.18 79.737,1057.3 C 81.2319,1057.43 82.6021,1059.04 82.4775,1060.54 C 82.353,1062.03 80.7336,1063.4 79.2388,1063.28 C 77.744,1063.16 76.3737,1061.54 76.4983,1060.04z"/>
    <path style="fill: none; fill-opacity:0; stroke-width: 1; stroke: #ff0000" d="M 76.4983 1060.04 C 76.6228,1058.55 78.2422,1057.18 79.737,1057.3 C 81.2319,1057.43 82.6021,1059.04 82.4775,1060.54 C 82.353,1062.03 80.7336,1063.4 79.2388,1063.28 C 77.744,1063.16 76.3737,1061.54 76.4983,1060.04"/>
    <polygon style="fill: none; fill-opacity:0; stroke-width: 1; stroke: #ff0000" points="208.505,1076.06 218.886,1071.91 209.336,1066.09 "/>
  </g>
  <text font-size="6.77333" style="fill: #000000;text-anchor:start;font-family:sans-serif;font-style:normal;font-weight:700" x="224" y="1000.09">
    <tspan x="224" y="1000.09">Server</tspan>
    <tspan x="224" y="1008.56">binding</tspan>
  </text>
  <g>
    <line style="fill: none; fill-opacity:0; stroke-width: 1; stroke: #ff0000" x1="217.737" y1="1073.74" x2="90.7124" y2="1109.02"/>
    <path style="fill: #ffffff" d="M 223.518 1072.13 C 223.92,1073.58 222.876,1075.43 221.431,1075.83 C 219.985,1076.23 218.139,1075.18 217.737,1073.74 C 217.336,1072.29 218.379,1070.45 219.825,1070.05 C 221.27,1069.64 223.117,1070.69 223.518,1072.13z"/>
    <path style="fill: none; fill-opacity:0; stroke-width: 1; stroke: #ff0000" d="M 223.518 1072.13 C 223.92,1073.58 222.876,1075.43 221.431,1075.83 C 219.985,1076.23 218.139,1075.18 217.737,1073.74 C 217.336,1072.29 218.379,1070.45 219.825,1070.05 C 221.27,1069.64 223.117,1070.69 223.518,1072.13"/>
    <polygon style="fill: none; fill-opacity:0; stroke-width: 1; stroke: #ff0000" points="89.3742,1104.21 81.0772,1111.7 92.0506,1113.84 "/>
  </g>
  <text font-size="6.77333" style="fill: #000000;text-anchor:middle;font-family:sans-serif;font-style:normal;font-weight:700" x="150" y="984.325">
    <tspan x="150" y="984.325">case 4: Forwarding property changes</tspan>
  </text>
  <text font-size="5.64444" style="fill: #000000;text-anchor:end;font-family:sans-serif;font-style:normal;font-weight:normal" x="76" y="1099.84">
    <tspan x="76" y="1099.84">If ECMD_ACK has</tspan>
    <tspan x="76" y="1106.89">property value, set it.</tspan>
    <tspan x="76" y="1113.95">Clear ack wait flag</tspan>
    <tspan x="76" y="1121.01">and call forward</tspan>
    <tspan x="76" y="1128.06">function.</tspan>
  </text>
  <g>
    <rect style="fill: #ff0000" x="97.625" y="1060.7" width="36.75" height="6.6"/>
    <text font-size="5.64444" style="fill: #ffffff;text-anchor:middle;font-family:sans-serif;font-style:normal;font-weight:normal" x="116" y="1065.95">
      <tspan x="116" y="1065.95">ECMD_FWRD</tspan>
    </text>
  </g>
  <text font-size="12.8" style="fill: #000000;text-anchor:start;font-family:sans-serif;font-style:normal;font-weight:normal" x="118" y="1040">
    <tspan x="118" y="1040"></tspan>
  </text>
  <g>
    <rect style="fill: #ff0000" x="148.45" y="1084.7" width="31.1" height="6.6"/>
    <text font-size="5.64444" style="fill: #ffffff;text-anchor:middle;font-family:sans-serif;font-style:normal;font-weight:normal" x="164" y="1089.95">
      <tspan x="164" y="1089.95">ECMD_ACK</tspan>
    </text>
  </g>
  <text font-size="5.64444" style="fill: #000000;text-anchor:start;font-family:sans-serif;font-style:normal;font-weight:normal" x="8" y="1149.25">
    <tspan x="8" y="1149.25">If there is binding is disconnected, foward calls are ignored. </tspan>
    <tspan x="8" y="1156.31">If flow control is disabled, then do not wait for ack.</tspan>
    <tspan x="8" y="1163.36">If this is binding within same thread, disable flow control and do not send ECMD_ACKs at all.</tspan>
    <tspan x="8" y="1170.42">If client is currently binding</tspan>
  </text>
  <text font-size="5.64444" style="fill: #000000;text-anchor:end;font-family:sans-serif;font-style:normal;font-weight:normal" x="76" y="1047.84">
    <tspan x="76" y="1047.84">forward() function: </tspan>
    <tspan x="76" y="1054.89">send if changed flag</tspan>
    <tspan x="76" y="1061.95">is set, not currently</tspan>
    <tspan x="76" y="1069.01">binding and not waiting</tspan>
    <tspan x="76" y="1076.06">for ack. Start ack wait.</tspan>
  </text>
  <g>
    <line style="fill: none; fill-opacity:0; stroke-width: 1; stroke: #ff0000" x1="48" y1="1028.5" x2="48" y2="1038.88"/>
    <path style="fill: #ffffff" d="M 48 1024.5 C 49,1024.5 50,1025.5 50,1026.5 C 50,1027.5 49,1028.5 48,1028.5 C 47,1028.5 46,1027.5 46,1026.5 C 46,1025.5 47,1024.5 48,1024.5z"/>
    <path style="fill: none; fill-opacity:0; stroke-width: 1; stroke: #ff0000" d="M 48 1024.5 C 49,1024.5 50,1025.5 50,1026.5 C 50,1027.5 49,1028.5 48,1028.5 C 47,1028.5 46,1027.5 46,1026.5 C 46,1025.5 47,1024.5 48,1024.5"/>
    <polygon style="fill: none; fill-opacity:0; stroke-width: 1; stroke: #ff0000" points="46,1038.88 48,1042.88 50,1038.88 "/>
  </g>
  <g>
    <line style="fill: none; fill-opacity:0; stroke-width: 1; stroke: #ff0000" x1="48" y1="1087.5" x2="48" y2="1081.12"/>
    <path style="fill: #ffffff" d="M 48 1091.5 C 47,1091.5 46,1090.5 46,1089.5 C 46,1088.5 47,1087.5 48,1087.5 C 49,1087.5 50,1088.5 50,1089.5 C 50,1090.5 49,1091.5 48,1091.5z"/>
    <path style="fill: none; fill-opacity:0; stroke-width: 1; stroke: #ff0000" d="M 48 1091.5 C 47,1091.5 46,1090.5 46,1089.5 C 46,1088.5 47,1087.5 48,1087.5 C 49,1087.5 50,1088.5 50,1089.5 C 50,1090.5 49,1091.5 48,1091.5"/>
    <polygon style="fill: none; fill-opacity:0; stroke-width: 1; stroke: #ff0000" points="50,1081.12 48,1077.12 46,1081.12 "/>
  </g>
</svg>
